:SAMPLES-PER-SECOND 30
:FRAME-RANGE 1-668
:FULLY-SPECIFIED
:DEGREES
251
root  65.039 38.2306 -22.4345 179.002 -42.9049 -179.234
RightUpLeg  -13.3804 -6.27424 -11.7172
RightLeg  23.4372 4.88329 2.09091
RightFoot  -9.59342 -0.328078 17.0864
RightToes  -1.33073e-015 0 -3.6325e-017
Spine  9.43126 0.293509 3.90812
Spine1  5.15651 0.423585 1.18187
HEad  -35.1529 52.0282 -35.8094
LeftShoulder1  2.19266 -3.59501 -24.6959
LeftArm  60.2764 -28.9386 -83.1751
LeftForeArm  9.8338 -29.6391 -5.90665
LeftHand  0.0855392 -5.42181 -0.602423
RightShoulder  9.62041 13.0207 50.9685
RightArm  24.8408 -0.196178 13.1157
RightForeArm  12.62 10.9604 13.8704
RightHand  -0.356397 4.11002 -4.62488
LeftUpLeg  -20.1972 -15.7325 4.51913
LeftLeg  36.1552 -1.4593 -0.785634
LeftFoot  -10.8528 0.0772972 -2.86536
LeftToes  -2.73175e-012 1.00346e-010 -4.28452e-011
252
root  65.595 38.5199 -22.8482 -179.69 -47.6131 179.969
RightUpLeg  -12.205 -9.82625 -11.4089
RightLeg  21.9791 3.64414 1.3551
RightFoot  -9.32839 -0.352528 16.332
RightToes  -1.33073e-015 0 -3.6325e-017
Spine  9.23627 0.250467 4.78007
Spine1  5.00449 0.717522 -0.22653
HEad  -33.5541 50.4223 -33.8985
LeftShoulder1  2.18368 -3.39023 -25.5168
LeftArm  64.9678 -27.0179 -82.2234
LeftForeArm  -0.946936 -22.7506 -5.33769
LeftHand  -0.0915904 -4.61716 1.3539
RightShoulder  9.75105 13.7464 49.4937
RightArm  32.5505 -1.59286 13.9801
RightForeArm  13.4247 9.75185 15.066
RightHand  -0.322183 3.60089 -4.41191
LeftUpLeg  -21.0066 -9.37333 3.19173
LeftLeg  34.1428 0.0988945 0.425
LeftFoot  -7.96851 0.149495 -3.45362
LeftToes  -2.73175e-012 1.00346e-010 -4.28452e-011
253
root  66.0622 38.8972 -23.1857 -177.72 -52.2477 178.725
RightUpLeg  -10.6265 -13.4658 -11.5199
RightLeg  18.954 2.36519 0.905345
RightFoot  -8.25863 -0.485911 15.8643
RightToes  -1.33073e-015 0 -3.6325e-017
Spine  8.1215 0.399216 5.50441
Spine1  5.74313 1.13547 -1.48227
HEad  -31.4674 47.9944 -32.6081
LeftShoulder1  2.1852 -3.14948 -26.7293
LeftArm  53.559 -25.7376 -77.5109
LeftForeArm  2.27021 -17.0313 -10.8002
LeftHand  -0.14785 -3.8756 2.11862
RightShoulder  9.45771 13.8047 47.8314
RightArm  48.8808 -4.76067 14.3855
RightForeArm  8.71619 15.1301 11.9855
RightHand  -0.141543 4.42626 -1.95735
LeftUpLeg  -21.7341 -1.11803 0.99665
LeftLeg  32.1062 -0.965876 -0.306548
LeftFoot  -8.45659 0.199549 -5.91005
LeftToes  -2.73175e-012 1.00346e-010 -4.28452e-011
254
root  66.4562 39.2516 -23.4722 -175.387 -56.8566 177.265
RightUpLeg  -8.80107 -15.2046 -12.0784
RightLeg  15.3522 -0.764706 1.00739
RightFoot  -7.02274 -0.642922 15.6856
RightToes  -1.33073e-015 0 -3.6325e-017
Spine  7.1347 0.532234 6.22911
Spine1  6.00046 1.51346 -2.62295
HEad  -29.6852 45.2971 -31.8651
LeftShoulder1  2.16088 -2.94556 -27.4109
LeftArm  36.8969 -24.4532 -70.581
LeftForeArm  9.48253 -10.6002 -15.299
LeftHand  -0.0406078 -3.58677 0.778184
RightShoulder  8.53305 12.6332 46.2639
RightArm  61.6526 -8.15088 14.7243
RightForeArm  3.84715 20.2038 7.26027
RightHand  -0.133257 4.81069 -1.81259
LeftUpLeg  -22.6148 5.24321 -1.16863
LeftLeg  30.7817 -0.237008 0.191839
LeftFoot  -8.1151 0.242884 -6.89382
LeftToes  -2.73175e-012 1.00346e-010 -4.28452e-011
255
root  66.7815 39.5125 -23.7097 -172.984 -61.2841 175.62
RightUpLeg  -6.9358 -15.2412 -12.868
RightLeg  12.0864 -5.41563 1.66719
RightFoot  -6.0445 -0.774339 15.7529
RightToes  -1.33073e-015 0 -3.6325e-017
Spine  6.47188 0.63131 6.47519
Spine1  5.88082 1.6413 -2.92064
HEad  -27.9983 42.9041 -30.8686
LeftShoulder1  2.09778 -2.6719 -27.8852
LeftArm  20.7718 -22.7079 -61.9218
LeftForeArm  15.7996 -4.8767 -17.1345
LeftHand  0.0876488 -3.53782 -0.891418
RightShoulder  7.45589 10.9958 44.9563
RightArm  64.4739 -11.0713 14.4973
RightForeArm  4.18148 23.9484 4.90637
RightHand  -0.156969 4.82979 -2.0794
LeftUpLeg  -23.5071 9.06108 -2.64807
LeftLeg  30.6859 2.6919 2.06874
LeftFoot  -7.80657 0.235707 -6.11977
LeftToes  -2.73175e-012 1.00346e-010 -4.28452e-011
256
root  67.0264 39.6458 -23.8982 -171.099 -65.2436 174.324
RightUpLeg  -5.43219 -15.1728 -13.2801
RightLeg  9.87951 -9.48008 2.3567
RightFoot  -5.58924 -0.850695 16.0728
RightToes  -1.33073e-015 0 -3.6325e-017
Spine  6.24405 0.701155 6.80753
Spine1  5.36627 1.70204 -2.96749
HEad  -26.4648 40.89 -29.5624
LeftShoulder1  1.96764 -2.20621 -28.3851
LeftArm  7.34601 -20.1529 -52.5218
LeftForeArm  20.6615 -1.1035 -17.1642
LeftHand  0.0754453 -2.53771 -0.905698
RightShoulder  6.6464 9.58655 44.3739
RightArm  61.3973 -13.4582 13.6828
RightForeArm  7.19027 26.4061 5.29596
RightHand  -0.173086 4.64815 -2.29209
LeftUpLeg  -24.2854 12.4045 -3.2631
LeftLeg  31.7159 4.95187 3.63895
LeftFoot  -7.79086 0.220667 -5.61098
LeftToes  -2.73175e-012 1.00346e-010 -4.28452e-011
257
root  67.1867 39.6925 -24.0433 -169.914 -68.7326 173.665
RightUpLeg  -4.29035 -15.4229 -13.2092
RightLeg  8.43517 -12.5663 2.85825
RightFoot  -5.4774 -0.88635 16.4673
RightToes  -1.33073e-015 0 -3.6325e-017
Spine  6.00889 0.797451 7.49378
Spine1  4.91515 1.86796 -3.23914
HEad  -25.141 39.3118 -28.2935
LeftShoulder1  1.80997 -1.6328 -29.1736
LeftArm  -0.0924514 -17.219 -42.7187
LeftForeArm  20.1033 -0.546039 -16.7752
LeftHand  0.00518353 -1.64492 0.0621624
RightShoulder  5.96541 8.25295 44.3523
RightArm  59.7045 -14.7456 13.2152
RightForeArm  7.19465 26.9587 5.42218
RightHand  -0.136875 4.70285 -1.86694
LeftUpLeg  -24.7159 14.8299 -2.93486
LeftLeg  32.6939 5.88993 4.40607
LeftFoot  -7.68366 0.215478 -5.30417
LeftToes  -2.73175e-012 1.00346e-010 -4.28452e-011
258
root  67.2751 39.7094 -24.1441 -169.011 -71.6021 173.237
RightUpLeg  -3.30324 -15.5138 -13.0667
RightLeg  7.13715 -15.1181 3.37343
RightFoot  -5.40222 -0.926763 17.0345
RightToes  -1.33073e-015 0 -3.6325e-017
Spine  5.93181 0.98772 7.83676
Spine1  4.26749 2.09818 -3.4192
HEad  -23.79 38.0563 -26.8994
LeftShoulder1  1.64564 -1.05017 -30.0815
LeftArm  -5.92564 -14.0695 -33.0614
LeftForeArm  16.3848 -1.45569 -16.3047
LeftHand  -0.0239652 -0.940494 0.536526
RightShoulder  5.42845 7.07678 44.8764
RightArm  59.6088 -14.7385 13.212
RightForeArm  4.95512 25.4756 5.20444
RightHand  -0.144424 4.74825 -1.94769
LeftUpLeg  -24.6 16.5893 -2.11148
LeftLeg  32.6399 6.21038 4.61562
LeftFoot  -7.59155 0.200258 -4.72594
LeftToes  -2.73175e-012 1.00346e-010 -4.28452e-011
259
root  67.302 39.7341 -24.1733 -167.916 -73.8055 172.626
RightUpLeg  -2.42427 -15.495 -13.0105
RightLeg  5.58445 -17.1635 3.92133
RightFoot  -5.0809 -0.998155 17.4883
RightToes  -1.33073e-015 0 -3.6325e-017
Spine  6.09809 1.21972 7.79036
Spine1  3.19154 2.38083 -3.75921
HEad  -22.438 37.194 -25.3916
LeftShoulder1  1.48445 -0.526222 -30.7812
LeftArm  -9.65173 -10.5525 -24.2594
LeftForeArm  9.41955 -3.66744 -15.7476
LeftHand  -0.00148765 0.260352 0.00166421
RightShoulder  5.15768 6.32904 45.9228
RightArm  60.3143 -13.9716 13.2511
RightForeArm  1.03914 22.9974 5.10013
RightHand  -0.176168 4.64518 -2.32821
LeftUpLeg  -23.9013 18.8602 -1.34967
LeftLeg  31.0203 6.18324 4.34144
LeftFoot  -7.39046 0.191608 -4.26936
LeftToes  -2.73175e-012 1.00346e-010 -4.28452e-011
260
root  67.2987 39.7667 -24.0981 -166.502 -75.6487 172.036
RightUpLeg  -1.9181 -15.3353 -12.9083
RightLeg  3.6742 -19.1179 4.54525
RightFoot  -4.32958 -1.12474 17.7414
RightToes  -1.33073e-015 0 -3.6325e-017
Spine  6.15126 1.41874 7.54355
Spine1  1.88765 2.58654 -4.15176
HEad  -21.2 36.4226 -24.1712
LeftShoulder1  1.2993 -0.0285081 -30.7223
LeftArm  -11.78 -6.76854 -17.4789
LeftForeArm  2.60369 -5.9494 -15.0733
LeftHand  0.0137364 1.88799 -0.812354
RightShoulder  5.078 5.96072 47.003
RightArm  55.0816 -12.4788 13.1872
RightForeArm  2.70855 19.7161 7.68621
RightHand  -0.198191 4.57328 -2.59692
LeftUpLeg  -23.3486 21.8389 -0.982709
LeftLeg  28.3394 6.41317 4.07169
LeftFoot  -7.09551 0.188903 -3.9472
LeftToes  -2.73175e-012 1.00346e-010 -4.28452e-011
